<?xml version="1.0" encoding="UTF-8" standalone="no"?>
<!-- Created with Inkscape (http://www.inkscape.org/) -->

<svg
   xmlns:dc="http://purl.org/dc/elements/1.1/"
   xmlns:cc="http://creativecommons.org/ns#"
   xmlns:rdf="http://www.w3.org/1999/02/22-rdf-syntax-ns#"
   xmlns:svg="http://www.w3.org/2000/svg"
   xmlns="http://www.w3.org/2000/svg"
   xmlns:sodipodi="http://sodipodi.sourceforge.net/DTD/sodipodi-0.dtd"
   xmlns:inkscape="http://www.inkscape.org/namespaces/inkscape"
   id="svg2874"
   version="1.1"
   inkscape:version="0.47 r22583"
   width="876"
   height="1173"
   sodipodi:docname="Cullen Crest SVG.svg">
  <metadata
     id="metadata2880">
    <rdf:RDF>
      <cc:Work
         rdf:about="">
        <dc:format>image/svg+xml</dc:format>
        <dc:type
           rdf:resource="http://purl.org/dc/dcmitype/StillImage" />
        <dc:title></dc:title>
      </cc:Work>
    </rdf:RDF>
  </metadata>
  <defs
     id="defs2878">
    <inkscape:perspective
       sodipodi:type="inkscape:persp3d"
       inkscape:vp_x="0 : 0.5 : 1"
       inkscape:vp_y="0 : 1000 : 0"
       inkscape:vp_z="1 : 0.5 : 1"
       inkscape:persp3d-origin="0.5 : 0.33333333 : 1"
       id="perspective2882" />
    <inkscape:perspective
       id="perspective2896"
       inkscape:persp3d-origin="0.5 : 0.33333333 : 1"
       inkscape:vp_z="1 : 0.5 : 1"
       inkscape:vp_y="0 : 1000 : 0"
       inkscape:vp_x="0 : 0.5 : 1"
       sodipodi:type="inkscape:persp3d" />
    <filter
       id="filter2987"
       inkscape:label="Invert"
       x="0"
       y="0"
       width="1"
       height="1"
       inkscape:menu="Color"
       inkscape:menu-tooltip="Invert colors"
       color-interpolation-filters="sRGB">
      <feColorMatrix
         id="feColorMatrix2989"
         type="saturate"
         values="1"
         result="fbSourceGraphic" />
      <feColorMatrix
         id="feColorMatrix2991"
         in="fbSourceGraphic"
         values="-1 0 0 0 1 0 -1 0 0 1 0 0 -1 0 1 0 0 0 1 0 " />
    </filter>
  </defs>
  <sodipodi:namedview
     pagecolor="#ffffff"
     bordercolor="#666666"
     borderopacity="1"
     objecttolerance="10"
     gridtolerance="10"
     guidetolerance="10"
     inkscape:pageopacity="0"
     inkscape:pageshadow="2"
     inkscape:window-width="1366"
     inkscape:window-height="706"
     id="namedview2876"
     showgrid="false"
     inkscape:zoom="0.20119352"
     inkscape:cx="438"
     inkscape:cy="586.5"
     inkscape:window-x="-8"
     inkscape:window-y="-8"
     inkscape:window-maximized="1"
     inkscape:current-layer="svg2874" />
  <path
     style="fill:#000000;filter:url(#filter2987)"
     d="m 118.56419,1151.4245 c -18.975798,-5.0997 -34.595098,-22.346 -34.448498,-38.0369 0.047,-5.084 0.7786,-7.6405 4.2591,-14.8941 5.1073,-10.6438 6.1126,-18.0921 6.1383,-45.4754 0.016,-16.85 -0.211,-19.3123 -2.5326,-27.5 -3.0669,-10.8162 -4.2394,-26.5852 -2.5594,-34.41897 1.2772,-5.95554 7.1509,-14.9875 15.566498,-23.93671 11.7501,-12.49518 33.0117,-25.14385 49.0428,-29.17589 6.4973,-1.63418 11.3941,-2.02095 26.0698,-2.05916 19.1974,-0.05 29.5022,0.95177 43.7477,4.25277 4.8496,1.12377 9.0197,1.84105 9.2668,1.59396 0.2471,-0.24709 -5.7458,-6.32005 -13.3175,-13.49547 -29.0121,-27.4936 -44.0336,-43.95889 -58.1634,-63.7536 -13.8257,-19.3687 -20.8035,-32.25487 -33.9317,-62.66378 C 97.725292,732.42637 81.661792,675.96463 73.977592,613.02503 c -2.207,-18.07639 -3.0571,-66.76423 -1.5198,-87.03572 6.2488,-82.39882 26.9812,-160.46762 59.179898,-222.84431 42.1032,-81.5642 102.9478,-141.8956 188.1427,-186.55577 l 14.75,-7.7321 0,17.0748 0,17.07487 -10.25,5.14341 c -18.086,9.07548 -31.0508,17.64759 -61.389,40.58927 -26.1839,19.80029 -58.518,56.4231 -83.3837,94.44372 -18.3725,28.09216 -47.1912,91.881 -57.3379,126.91482 -12.869,44.43301 -17.1552,82.74235 -17.1102,152.92701 0.031,48.11306 0.6272,57.04875 5.5824,83.64216 l 2.0761,11.14215 5.1562,2.7731 c 2.8358,1.5252 40.7061,22.56515 84.1561,46.75544 43.45,24.19028 95.2,52.96646 115,63.94705 19.8,10.98059 38.025,21.10002 40.5,22.48762 2.475,1.3876 26.318,14.64691 52.9844,29.46514 44.8675,24.93241 48.7093,26.87235 51.5,26.0055 3.3134,-1.02921 3.3695,-0.99455 -5.9844,-3.69268 -18.2681,-5.26943 -31.6722,-19.64695 -37.5815,-40.31069 -3.4409,-12.03208 -2.1201,-16.23246 6.8795,-21.87788 3.1361,-1.96728 7.5104,-5.58041 9.7206,-8.02917 l 4.0186,-4.45231 22.655,0.10575 22.655,0.10574 2.5455,-3.33729 c 3.5707,-4.6815 5.6073,-9.99171 5.6073,-14.62059 l 0,-3.95519 -2.8288,2.8288 c -2.7475,2.74749 -9.1153,5.26279 -11.4958,4.54086 -0.6465,-0.19605 -2.4395,-0.6343 -3.9845,-0.97387 -3.275,-0.7198 -11.2072,-7.7137 -13.2677,-11.69811 -0.7906,-1.52885 -1.3868,-5.33016 -1.3414,-8.55187 l 0.082,-5.79966 11.6198,-10.5 c 6.3909,-5.775 15.9166,-14.96961 21.1682,-20.43246 19.348,-20.12614 21.8063,-22.45468 27.7888,-26.32136 8.797,-5.68578 18.8345,-8.67032 28.7423,-8.54621 12.8257,0.16066 21.6478,4.3573 23.4824,11.17048 2.1486,7.97932 -2.4897,17.697 -18.8748,39.54427 -9.6422,12.85664 -11.5874,17.44928 -10.129,23.9145 1.1493,5.0946 1.6209,5.37641 3.37,2.01371 0.8133,-1.56361 2.6333,-3.92148 4.0444,-5.2397 2.9433,-2.74956 2.0854,-3.16452 12.8743,6.227 6.3585,5.53492 6.75,6.12296 6.75,10.1379 0,8.27274 -5.3645,11.49556 -13.4862,8.10209 -3.2481,-1.35714 -3.6343,-1.28713 -7.6028,1.37813 -6.9935,4.69689 -13.9595,12.22873 -17.158,18.55165 -4.1966,8.29594 -4.9096,11.12511 -3.1682,12.57034 2.288,1.89889 1.622,3.18868 -3.944,7.6384 l -5.2646,4.20875 -4.847,-1.45875 c -9.573,-2.88104 -14.4153,-1.4473 -17.9052,5.30149 -3.0004,5.80208 -2.1373,6.81322 6.376,7.46983 2.989,0.23053 3.546,0.66907 3.8149,3.00391 l 0.3149,2.73397 5.1851,-2.62414 c 2.8518,-1.44328 11.3252,-6.3326 18.8298,-10.86515 l 13.6448,-8.24101 6.8552,6.95522 c 3.7704,3.82537 7.9803,7.55871 9.3553,8.29632 1.375,0.73761 3.5606,2.34157 4.8568,3.56437 2.2445,2.11744 2.3228,2.63017 1.6446,10.77184 -0.3916,4.70172 -1.4183,10.02959 -2.2815,11.83972 -1.4537,3.0484 -1.4377,3.43675 0.2172,5.26534 0.9826,1.0858 4.1652,2.46799 7.0724,3.07152 4.7958,0.99561 5.8676,0.86097 11.5606,-1.45232 10.7509,-4.36848 11.6917,-3.66347 12.9569,9.70973 1.1006,11.63275 2.0552,14.21051 6.1981,16.73642 3.7969,2.31498 10.7749,2.73809 10.7749,0.65333 0,-0.74298 -2.25,-4.32305 -5,-7.95572 -4.7361,-6.25625 -5,-6.92792 -5,-12.72605 0,-5.40732 0.3349,-6.45614 2.8719,-8.99307 3.4614,-3.46144 7.5716,-4.65626 11.0545,-3.2135 1.4155,0.58637 5.2736,2.21939 8.5736,3.62893 9.334,3.98686 20.9914,3.09324 26.6726,-2.04464 5.6213,-5.08363 7.5847,-15.95109 3.9568,-21.90036 -1.8184,-2.98182 -1.8181,-3.11091 0.01,-5.36901 3.7502,-4.63128 5.1846,-12.56015 4.4611,-24.66015 -1.0229,-17.11045 -0.7001,-18.14518 8.7768,-28.13236 4.4505,-4.69012 10.6072,-10.23565 13.6815,-12.3234 6.4953,-4.41088 11.0778,-9.3479 14.0082,-15.09183 1.1438,-2.24203 4.7547,-6.9519 8.0241,-10.46636 5.8785,-6.31889 13.2703,-16.81543 14.4425,-20.50855 0.3329,-1.04907 -0.101,-3.32331 -0.9643,-5.05387 -0.8633,-1.73056 -1.5697,-3.27699 -1.5697,-3.43653 0,-0.33113 8.7744,-5.23447 45.5,-25.42656 14.3,-7.86227 27.8593,-15.33603 30.1316,-16.60836 3.8698,-2.16667 4.204,-2.71124 5.2726,-8.59053 2.6597,-14.63365 3.1136,-21.32611 4.1558,-61.27721 1.4855,-56.95057 0.6233,-72.32943 -6.0831,-108.5 -13.2261,-71.33405 -21.7771,-99.13988 -45.0525,-146.5 -21.6843,-44.12273 -52.2824,-86.52761 -89.7541,-124.38725 -24.2414,-24.49243 -32.7192,-30.71062 -69.1536,-50.72205 l -20.5167,-11.26874 -0.2748,-16.06096 c -0.2138,-12.4973 0.01,-16.0582 1,-16.0485 2.0748,0.02 32.2283,15.0405 46.2748,23.0506 14.8882,8.49016 34.4457,21.41416 44.27,29.25462 23.8697,19.04952 67.1324,70.61344 92.0248,109.68228 34.4891,54.13104 60.5934,127.39068 71.087,199.5 4.5154,31.02863 5.5559,47.26458 5.5114,86 -0.054,46.67253 -2.6448,74.32803 -10.5367,112.45963 -20.4963,99.03267 -67.2595,187.72699 -136.788,259.44113 -5.8127,5.99542 -9.6685,10.57095 -8.5685,10.16786 8.2762,-3.03277 20.3682,-4.74736 37.1457,-5.26709 27.9036,-0.8644 42.7608,1.90822 62.8543,11.72972 21.5693,10.54284 35.2976,24.23362 41.0812,40.96875 2.95,8.53587 2.5388,24.06167 -0.9162,34.59707 -3.4202,10.4293 -5.0285,25.8513 -4.1856,40.1349 1.0122,17.1508 2.9395,28.0841 5.946,33.7308 6.1509,11.552 7.052,22.7483 2.5441,31.6097 -1.2388,2.4352 -5.6566,7.9304 -9.8173,12.2115 -6.826,7.0235 -8.2531,8.0004 -14.6086,10 -5.5664,1.7513 -9.4554,2.2161 -18.5436,2.2161 -10.522,0 -11.9286,-0.2262 -16.5401,-2.6605 -8.7138,-4.5997 -16.553,-15.0753 -20.459,-27.3395 -2.554,-8.0194 -6.3549,-13.983 -13.6467,-21.4119 l -7.448,-7.5881 0.2969,20.5 c 0.2688,18.5595 0.1202,20.7917 -1.5696,23.5822 -2.5717,4.2467 -5.0352,5.5551 -11.5452,6.1318 -6.878,0.6093 -14.4782,-1.2768 -28.8915,-7.1698 -9.9731,-4.0777 -25.8178,-8.2565 -26.9632,-7.1112 -0.5968,0.5969 1.6902,4.1568 4.7008,7.317 2.6493,2.7809 1.8898,2.8274 -3.507,0.2148 -4.6003,-2.2269 -8.8691,-7.6764 -9.8943,-12.6308 -0.5401,-2.6101 -0.1408,-3.7415 2.274,-6.4442 2.6194,-2.9316 3.604,-3.3212 9.3115,-3.6846 5.2254,-0.3327 7.3791,0.044 11.8818,2.0769 7.9339,3.5824 9.4043,3.8943 12.6175,2.6768 6.957,-2.6362 11.069,-9.5333 12.382,-20.7681 2.1301,-18.2273 8.2174,-27.3642 20.136,-30.2234 13.5346,-3.2469 36.3818,4.7928 58.2913,20.5121 4.2479,3.0478 8.7766,5.5205 10.1105,5.5205 3.8968,0 5.6507,-3.8998 6.2165,-13.8228 0.9209,-16.1526 -4.3805,-27.2029 -15.7898,-32.9119 -11.7231,-5.866 -17.0945,-6.7699 -39.9644,-6.7253 -33.0918,0.065 -56.5553,4.7832 -90,18.099 -11.6664,4.645 -39.6557,19.2586 -51.5,26.8889 -12.1683,7.839 -36.263,18.3428 -59.4904,25.934 -42.5554,13.9081 -79.3502,17.34 -112.6868,10.5104 -40.1492,-8.2254 -68.8381,-19.9812 -123.8228,-50.7388 -20.5778,-11.5109 -51.5899,-22.4593 -78.3328,-27.6544 -38.885,-7.5538 -69.5269,-4.8603 -83.4133,7.3321 -5.2019,4.5674 -9.9761,17.0909 -10.136,26.5888 -0.1,5.9262 0.2951,7.7026 2.5745,11.5797 4.6369,7.8875 4.8573,7.9134 12.7899,1.5042 15.2272,-12.3031 29.6659,-19.1266 46.7494,-22.0932 12.0579,-2.0939 20.5873,-0.013 27.0529,6.6002 4.0293,4.1212 5.8984,10.1402 6.5805,21.1909 0.6352,10.2913 3.9187,17.676 9.5328,21.4401 4.4644,2.9931 6.9034,2.8766 15.1021,-0.7219 8.4439,-3.7061 13.2956,-3.8427 18.1966,-0.5124 4.0035,2.7205 5.3032,5.3848 4.394,9.0075 -0.7012,2.7938 -5.0123,8.125 -7.7591,9.5951 -1.8814,1.0069 -1.8957,0.9347 -0.3921,-1.9729 0.8583,-1.6599 1.5606,-3.3283 1.5606,-3.7075 0,-0.3793 -2.4056,-0.4413 -5.3459,-0.1379 -5.6251,0.5806 -13.2486,3.1097 -28.1541,9.3402 -7.598,3.1759 -10.4156,3.8282 -18.0874,4.1871 -9.0513,0.4234 -9.102,0.4124 -12.7361,-2.7784 -5.2613,-4.6194 -5.9141,-8.2013 -5.0929,-27.9442 0.5382,-12.9375 0.4126,-16.961 -0.548,-17.5546 -1.6634,-1.0281 -11.8812,9.7349 -14.7697,15.5577 -1.206,2.4311 -4.1821,8.7582 -6.6136,14.06 -6.822,14.8753 -14.2804,23.7178 -23.1206,27.4115 -4.4563,1.862 -17.3008,1.7823 -24.4979,-0.1518 z m 310.9349,-54.1494 c 0.7094,-1.5125 2.381,-5.1806 3.7148,-8.1513 l 2.4251,-5.4012 -3.7316,3.2763 c -10.2177,8.9713 -20.4023,7.3814 -20.3596,-3.1783 0.023,-5.7556 2.2847,-16.189 6.0849,-28.0735 2.4924,-7.7948 3.6477,-10.0511 5.696,-11.1243 2.9923,-1.5678 3.8979,-1.1495 -10.9486,-5.0575 -11.5381,-3.0371 -11.6142,-3.0425 -9.4689,-0.6719 1.5919,1.759 1.536,2.6213 -0.9568,14.75 -3.4913,16.9864 -7.0487,29.2562 -9.4407,32.5614 l -1.9392,2.6797 3.2279,0.9832 c 1.7754,0.5407 8.178,2.4105 14.228,4.155 6.05,1.7446 12.8,3.7733 15,4.5082 5.3518,1.7879 5.0101,1.8542 6.4687,-1.2558 z m 61.5313,-0.7501 c 9.35,-1.3749 18.0125,-2.7334 19.25,-3.0189 2.1382,-0.4933 2.2474,-0.9776 2.1979,-9.7501 l -0.052,-9.2309 -1.9882,5.1708 c -3.9624,10.305 -12.4689,14.6184 -17.7477,8.9994 -2.743,-2.9198 -6.5858,-17.7127 -8.1933,-31.5404 -1.0892,-9.3688 -1.0408,-10.3903 0.5772,-12.1782 2.2219,-2.4551 1.9231,-2.4565 -11.3439,-0.052 -11.0252,1.9985 -12.4916,2.5554 -9.3522,3.5518 1.5946,0.5061 2.513,2.7978 4.5453,11.3413 4.6805,19.6773 6.6654,34.0667 5.1667,37.457 -0.4255,0.9625 -0.613,1.7499 -0.4167,1.7498 0.1964,-10e-5 8.007,-1.1251 17.357,-2.4999 z m 88.75,-32.3759 16.75,-8.0526 -0.074,-4.7857 c -0.041,-2.6321 -0.4033,-6.8107 -0.8057,-9.2857 l -0.7315,-4.5 -0.8175,3.5 c -2.3173,9.9203 -9.9306,19 -15.9316,19 -4.9701,0 -8.0513,-4.0072 -12.7618,-16.5971 l -2.1551,-5.7599 2.104,-1.7037 c 3.6697,-2.9715 8.8017,-3.3401 12.2562,-0.8803 1.6678,1.1876 3.2019,1.9896 3.4092,1.7823 0.3159,-0.3159 -8.5318,-12.2905 -10.2269,-13.8413 -0.3006,-0.275 -0.2523,0.7269 0.1073,2.2265 0.5992,2.4988 0.2267,2.9429 -4.4605,5.3181 -2.813,1.4254 -5.6586,2.3829 -6.3237,2.1276 -0.6651,-0.2552 -1.7498,-2.2679 -2.4103,-4.4726 -1.4129,-4.7158 -0.4302,-8.2092 2.9814,-10.5988 3.2155,-2.2522 11.6342,-2.047 17.3993,0.4242 2.5984,1.1139 4.8422,1.9014 4.9862,1.75 0.1439,-0.1513 -2.1193,-2.9526 -5.0295,-6.225 l -5.2913,-5.95 -18.7273,8.95 c -17.5899,8.4064 -18.5573,9.0107 -15.9282,9.95 2.3822,0.8511 4.2715,4.0279 12.685,21.3305 8.8375,18.1745 9.7799,20.6348 8.8861,23.1987 -1.2276,3.5214 -2.4538,3.9425 20.1103,-6.9052 z m -230.25,-1.124 c 2.4262,-1.7276 5.1648,-6.3941 11.5221,-19.6331 8.3116,-17.3092 8.3503,-17.367 11.6586,-17.3831 3.0626,-0.015 2.7013,-0.3574 -4.671,-4.4264 -4.3947,-2.4256 -8.184,-4.2165 -8.4206,-3.9799 -0.2367,0.2367 0.5727,1.4979 1.7985,2.8029 l 2.2288,2.3724 -9.2803,18.5929 c -10.3098,20.6555 -10.6499,20.9888 -18.8961,18.5182 -4.4187,-1.3239 -7.929,-5.4786 -7.9362,-9.393 -0.01,-3.4536 18.5297,-35.7543 21.0539,-36.688 1.228,-0.4543 2.0548,-0.975 1.8375,-1.1572 -0.2174,-0.1821 -5.2219,-2.9016 -11.1213,-6.0433 l -10.726,-5.7122 1.4205,3.3998 c 1.4167,3.3906 1.3959,3.4427 -7.6858,19.3149 -9.4714,16.5531 -11.4121,22.5019 -8.8826,27.2282 1.6476,3.0785 13.6488,11.3273 19.5257,13.4206 6.2828,2.2378 12.3313,1.7876 16.5743,-1.2337 z m 297.1997,-32.3649 4.6904,-1.8648 -1.8558,-2.6352 c -1.8654,-2.6487 -12.3935,-35.66621 -11.8337,-37.11198 0.1647,-0.42536 8.8315,4.32391 19.2597,10.55394 19.7099,11.77514 21.2173,13.18044 20.1166,18.75324 -0.3075,1.5567 -0.213,2.6818 0.21,2.5001 0.423,-0.1817 3.1019,-1.2008 5.9532,-2.2644 l 5.1842,-1.934 -2.7288,-1.6594 c -2.4039,-1.4619 -3.4846,-4.1597 -9.0781,-22.66285 -4.1125,-13.60392 -6.1087,-21.76198 -5.666,-23.15661 0.8442,-2.66001 0.3982,-2.66447 -6.4514,-0.0645 -6.7644,2.56759 -6.8404,2.64133 -3.8805,3.76667 1.8183,0.69132 2.9314,2.55527 4.6112,7.72211 1.2179,3.74595 2.0399,6.98532 1.8266,7.19859 -0.2133,0.21328 -4.062,-2.18682 -8.5527,-5.33355 -6.2654,-4.39031 -8.0517,-6.15417 -7.6784,-7.5819 0.2676,-1.02332 0.1912,-1.86584 -0.1698,-1.87227 -1.5114,-0.027 -27.1564,9.32724 -27.1564,9.90543 0,0.34758 1.0125,1.07616 2.25,1.61908 1.831,0.80332 3.5746,4.89756 9.3634,21.9871 5.4322,16.037 6.9093,21.5473 6.25,23.3152 -1.0599,2.8422 -1.0818,3.448 -0.1087,3.0182 0.4151,-0.1833 2.8653,-1.1725 5.445,-2.1982 z m -377.6151,-6.3851 c 3.5718,-4.7507 4.8765,-7.06 3.3712,-5.967 -1.3507,0.9807 -4.4358,2.7192 -6.8558,3.8633 -11.9428,5.6458 -26.2428,-4.4264 -26.2428,-18.484 0,-14.49569 6.6947,-23.66237 17.2813,-23.66237 7.3745,0 13.0978,5.70915 16.4461,16.40563 1.2143,3.87924 1.2851,3.50328 1.3485,-7.15563 0.066,-11.01783 0.021,-11.25014 -2.1831,-11.25697 -1.2375,-0.004 -5.6044,-1.14534 -9.7042,-2.53668 -19.9234,-6.76133 -32.2761,-2.68397 -36.6229,12.0884 -5.4744,18.60452 1.7388,34.33622 18.0544,39.37562 3.7033,1.1438 7.9235,2.1051 9.3781,2.1361 2.0224,0.043 8.9239,2.0375 9.7735,2.8243 0.071,0.066 2.7509,-3.3682 5.9557,-7.6307 z m 205.4154,-26.26197 c 34.786,-3.0091 76.2367,-14.58549 105.5,-29.46412 22.1061,-11.23959 50.3975,-29.69001 71.4896,-46.62237 16.9335,-13.59391 39.0551,-37.84858 58.738,-64.40161 18.9128,-25.51421 23.1263,-31.7098 20.5224,-30.17635 -2.47,1.45462 -49.0655,27.68804 -60.75,34.20249 -7.7,4.29296 -15.575,8.68639 -17.5,9.76317 -11.3532,6.3506 -31.6102,17.56993 -45.5,25.2002 -8.8,4.83422 -19.825,10.91897 -24.5,13.52168 -34.6321,19.28071 -114.6784,61.16712 -121.5,63.57819 -3.3287,1.17651 -8.0084,1.77616 -14,1.79391 -10.7242,0.0318 -11.7403,-0.3809 -42,-17.05754 -27.2862,-15.03794 -64.1215,-37.36989 -96.5,-58.50463 -27.2658,-17.79747 -55.7268,-35.14178 -105.5,-64.29239 -8.25,-4.83176 -19.0891,-11.20236 -24.0869,-14.15688 -4.9978,-2.95452 -9.372,-5.37185 -9.7204,-5.37185 -1.6121,0 21.4811,33.62104 34.6867,50.5 17.4665,22.32511 43.2798,48.74259 62.6206,64.08639 21.7282,17.23775 47.8694,31.64255 82.1265,45.2547 48.5422,19.28842 84.9226,25.68938 125.8735,22.14701 z m -13,-40.55384 c 0,-1.14654 -2.4332,-5.07575 -6.4133,-10.35625 -3.6822,-4.88529 -4.0867,-5.99238 -4.0867,-11.18434 0,-5.00733 0.3833,-6.16239 2.9252,-8.81555 4.5568,-4.75636 8.5036,-4.98214 16.8208,-0.9623 6.261,3.02598 7.8963,3.38418 15.4504,3.38418 l 8.4483,0 3.8588,-4.13747 c 7.3057,-7.83321 7.7748,-18.46153 1.1293,-25.5858 -3.0218,-3.23954 -4.5671,-4.07136 -8.3572,-4.49856 -6.7586,-0.76179 -13.1221,0.46779 -17.382,3.35858 -2.053,1.39324 -4.894,2.60743 -6.3132,2.69821 -2.0972,0.13413 -2.6377,-0.32976 -2.8864,-2.47726 -0.2228,-1.9235 0.9334,-4.16394 4.25,-8.23587 4.1919,-5.14651 4.556,-6.03826 4.556,-11.15736 0,-9.63616 -3.5222,-13.93909 -12.8264,-15.66939 -9.5573,-1.77736 -16.4075,0.11782 -22.2846,6.16528 -5.397,5.55338 -6.7293,10.09261 -4.5167,15.38815 0.8109,1.9408 2.6882,4.04787 4.2854,4.80978 2.263,1.07956 2.9058,2.12208 3.1536,5.11504 l 0.3114,3.75913 -14.9864,-0.26623 c -13.8091,-0.24531 -15.2035,-0.10425 -17.7496,1.79556 -5.0476,3.76639 -6.5645,6.72843 -6.6838,13.05128 -0.1992,10.54825 4.2615,15.36274 16.0655,17.34006 6.3016,1.0556 7.1296,0.96536 12.9617,-1.41276 10.9993,-4.48503 11.8177,-3.78139 13.2647,11.40471 1.0203,10.70889 1.8503,12.87041 5.9096,15.39038 2.4175,1.50074 11.0956,2.36013 11.0956,1.0988 z M 301.36139,869.47 c 0.5592,-0.46228 -1.9682,-4.69374 -5.9943,-10.03584 -3.4704,-4.60482 -3.8367,-5.67157 -3.8367,-11.17308 0,-5.40222 0.3299,-6.41212 2.951,-9.03318 4.4126,-4.41257 7.2687,-4.51621 16.7136,-0.60647 6.6423,2.74962 9.5497,3.4036 15.1309,3.4036 8.3846,0 12.3452,-2.2336 15.9588,-9 2.9843,-5.5881 2.8042,-14.43567 -0.3809,-18.70165 -4.011,-5.37237 -7.0024,-6.79835 -14.2612,-6.79835 -5.667,0 -7.7292,0.51789 -12.9413,3.25 -6.561,3.43917 -8.6449,3.91005 -9.706,2.19316 -1.2334,-1.99565 0.6082,-6.06715 4.8023,-10.61723 3.8983,-4.22912 4.1995,-4.96059 4.1995,-10.19899 0,-11.16051 -5.6156,-16.12269 -18.2488,-16.12539 -13.763,-0.003 -22.2179,6.47182 -22.2179,17.01453 0,5.08349 1.3784,7.7971 4.5787,9.01385 2.9953,1.1388 4.8292,5.33941 3.4534,7.91009 -0.8812,1.64656 -2.1613,1.76414 -14.2501,1.30888 -15.3245,-0.57712 -19.392,0.48217 -22.8122,5.94092 -1.7037,2.71928 -2.0171,4.59308 -1.7556,10.4969 0.2667,6.02144 0.721,7.6165 2.8021,9.83732 3.2128,3.42866 8.0394,5.40792 14.9485,6.13007 4.5727,0.47794 6.6279,0.12181 11.7581,-2.03747 3.4193,-1.43915 6.8896,-2.61664 7.7118,-2.61664 2.4274,0 3.6476,3.55073 4.6765,13.60762 0.5331,5.21059 1.3654,10.51577 1.8496,11.78929 1.6023,4.21441 11.723,7.65011 14.8702,5.04806 z m 171.9492,-25.27431 5.2803,-2.73498 -14.185,-12.46784 c -7.8017,-6.85731 -15.757,-13.79308 -17.6785,-15.41283 l -3.4934,-2.94498 3.8982,6.04735 c 10.3196,16.00897 19.9479,30.29934 20.3982,30.27514 0.275,-0.0148 2.8761,-1.25762 5.7802,-2.76186 z m 22.3809,-15.25285 c 4.2611,-2.17386 4.2744,-3.9131 0.03,-3.92597 -5.7579,-0.0175 -18.7225,-10.09024 -25.3094,-19.66396 -2.6834,-3.90023 -8.5312,-9.0116 -9.3608,-8.18201 -0.2002,0.20023 0.5053,2.83682 1.5679,5.85909 2.789,7.93313 8.4354,15.58705 16.1553,21.89923 5.0824,4.15567 6.8939,6.31374 7.3527,8.75958 l 0.6089,3.24541 2.523,-2.99844 c 1.3877,-1.64914 4.2823,-3.89596 6.4326,-4.99293 z m 81.0889,10.41991 c -0.8917,-0.3598 -1.25,-3.59955 -1.25,-11.30183 l 0,-10.79744 -5.4626,-2.76384 c -6.3925,-3.2343 -15.9615,-11.46032 -18.0665,-15.53086 -2.4212,-4.68219 -1.7626,-6.55876 4.743,-13.51328 10.965,-11.72155 25.548,-19.48135 42.5062,-22.61796 5.9289,-1.09663 11.4549,-2.32158 12.2799,-2.7221 2.6373,-1.28038 5.1723,-7.65874 4.4848,-11.28473 -1.3126,-6.92382 -1.9156,-7.17866 -18.7576,-7.92667 -21.7172,-0.96452 -27.7272,-3.88131 -27.7272,-13.45665 0,-3.59897 0.8992,-5.59274 5.4637,-12.11514 11.4607,-16.37635 16.396,-24.01786 19.4814,-30.16369 3.478,-6.92784 7.0549,-19.50334 7.0549,-24.80349 0,-2.83654 0.3533,-3.34004 2.3435,-3.34004 4.2505,0 13.6243,3.84579 22.4575,9.21369 l 8.699,5.28631 9.2504,0 c 5.0878,0 9.2503,0.28883 9.25,0.64185 -9e-4,1.39956 -9.6023,11.21302 -13.181,13.47214 -2.0922,1.32079 -7.3434,3.69315 -11.6693,5.2719 -12.8633,4.69451 -25.1501,13.33128 -25.1501,17.67876 0,2.92169 2.1009,4.50506 6.8166,5.13758 4.4938,0.60274 5.8364,-0.006 14.534,-6.58917 3.5172,-2.66213 11.9647,-7.53796 18.7721,-10.83518 8.7214,-4.22419 14.2346,-7.66131 18.6651,-11.63642 3.4583,-3.1028 6.9458,-5.64146 7.75,-5.64146 2.9072,0 5.4622,3.82832 5.4622,8.18428 0,5.79624 -3.2253,11.89092 -8.7085,16.4557 -8.9265,7.43145 -12.2915,10.60078 -12.2915,11.57681 0,0.6141 4.7934,0.83925 12.75,0.59888 11.5278,-0.34826 13.253,-0.64694 17.9972,-3.11586 2.886,-1.50188 8.961,-6.35247 13.5,-10.77911 7.3851,-7.20219 16.7528,-14.77992 16.7528,-13.55165 0,0.25583 -0.8702,2.49522 -1.9338,4.97643 l -1.9337,4.5113 2.4337,1.59466 c 4.7374,3.10403 4.047,4.66978 -10.4577,23.71629 -11.4981,15.09852 -14.3125,18.14697 -25.1138,27.20201 -9.9161,8.31302 -17.0608,15.81469 -19.3631,20.3306 -1.2198,2.39264 -1.636,6.05215 -1.6489,14.5 -0.022,14.48731 -1.6141,29.5882 -3.4076,32.32547 -1.7968,2.74221 -13.433,8.31181 -20.2079,9.67242 -7.5056,1.50734 -10.1189,0.56321 -12.4099,-4.48352 -2.4801,-5.46314 -2.4479,-8.82129 0.1159,-12.08061 2.5589,-3.25316 2.2254,-5.32646 -1.277,-7.93889 -4.6782,-3.48943 -5.5231,-1.67423 -8.4174,18.08381 -0.697,4.7581 -10.5193,14.45628 -14.2092,14.02964 -2.3586,-0.27271 -2.6528,-0.71635 -2.5256,-3.80866 0.3052,-7.42165 2.4665,-19.74955 4.4323,-25.28194 3.7385,-10.52152 1.0504,-14.136 -3.796,-5.10411 l -3.0438,5.67256 1.9904,3.37341 c 2.3293,3.94788 1.4283,5.81763 -3.3043,6.85708 -3.9062,0.85794 -4.5925,2.48692 -5.1305,12.1774 -0.2533,4.56398 -1.0269,8.88358 -1.7459,9.75 -1.241,1.49527 -5.1845,1.94714 -7.7962,0.89332 z m -337.75,-114.24493 c -6.2783,-1.56015 -9.4654,-4.09481 -11.9186,-9.47872 -1.1879,-2.6069 -1.0005,-3.67041 1.9382,-11 1.7892,-4.46274 3.5398,-9.91407 3.8902,-12.11407 1.3398,-8.4132 -5.9227,-15.45091 -15.9783,-15.48355 -6.8527,-0.0222 -13.1751,1.99803 -24.8423,7.93814 -12.7502,6.49152 -15.668,7.05746 -19.0337,3.69176 -3.2913,-3.2912 -3.3971,-7.9327 -0.2495,-10.9418 7.7445,-7.40389 25.699,-21.62215 30.2358,-23.94391 2.944,-1.50665 8.7183,-3.86915 12.8318,-5.25 12.8308,-4.30717 20.1496,-2.96964 25.387,4.63958 3.9505,5.73961 11.9663,13.15965 16.9785,15.71668 3.2751,1.67084 4.152,2.73874 4.7156,5.74325 0.3891,2.07423 1.9992,4.99756 3.6759,6.67432 2.7418,2.74177 3.4044,2.94011 8.1765,2.44755 2.8561,-0.2948 7.6679,-1.63762 10.6929,-2.98403 4.746,-2.11243 6.7513,-4.01086 14.6278,-13.84801 5.0203,-6.26999 10.0349,-13.19998 11.1436,-15.39998 2.8274,-5.61046 5.0882,-7.33549 11.1105,-8.4776 9.6853,-1.83679 26.7159,-12.98074 34.5672,-22.61905 2.407,-2.95483 7.1865,-10.89188 10.6211,-17.63788 9.3341,-18.33342 15.9701,-28.45795 23.9248,-36.50207 12.3007,-12.43908 34.6483,-28.02592 45.4303,-31.68651 7.4516,-2.52989 16.7511,-3.58584 39.5747,-4.49367 17.4805,-0.69531 22.7152,-1.24847 28,-2.9588 9.2018,-2.97799 16.762,-7.60667 19.215,-11.7643 1.1426,-1.93642 3.1197,-3.91708 4.3938,-4.40147 6.6282,-2.52006 18.3912,7.62984 18.3912,15.86925 0,3.90713 -1.7492,5.14443 -8.6825,6.14166 -14.8918,2.14191 -21.5375,5.2887 -33.2568,15.7474 -5.2584,4.69271 -10.6857,9.7173 -12.0607,11.16576 -11.2087,11.80749 -18.134,19.71808 -22.8644,26.11728 -8.3831,11.34044 -14.4934,17.41144 -27.2154,27.04026 -13.4331,10.16703 -24.4567,21.68081 -26.1414,27.30391 -0.8755,2.92186 -0.8672,5.51409 0.034,10.77047 2.2713,13.24553 0.9235,19.63405 -5.6103,26.59229 -3.8588,4.1095 -7.0943,4.91757 -11.1965,2.79628 -2.4909,-1.28813 -4.1155,-3.59354 -7.2587,-10.30102 l -4.0495,-8.64148 -4.2919,4.87738 -4.2919,4.87738 3.3789,3.94748 c 1.8584,2.17111 4.0827,5.43063 4.9429,7.24339 2.1284,4.4852 1.9752,11.40107 -0.3186,14.3843 -1.643,2.13684 -2.4075,2.33594 -7.2008,1.87536 -4.9192,-0.47267 -5.7578,-0.94495 -10.1397,-5.71039 l -4.7769,-5.19511 0,3.00465 c 0,4.26658 -1.562,7.8301 -4.0055,9.13779 -1.7203,0.92066 -2.8623,0.67852 -6.2991,-1.33555 -2.3088,-1.35306 -5.0973,-3.45463 -6.1966,-4.67016 -4.7475,-5.24927 -15.4988,-8.10931 -15.4988,-4.12296 0,2.87119 2.543,9.44153 5.4153,13.9916 1.4216,2.25191 2.5847,4.26462 2.5847,4.47268 0,0.20806 -2.4681,2.017 -5.4846,4.01987 l -5.4846,3.64158 -12.407,0 c -12.1479,0 -12.4191,-0.0485 -12.99,-2.32295 -0.3207,-1.27763 -2.2013,-4.4424 -4.1793,-7.03284 l -3.5962,-4.70988 -5.1792,2.93264 c -2.8485,1.61296 -10.3541,5.0326 -16.6791,7.59922 -6.325,2.56661 -14.706,6.3876 -18.6245,8.49109 -7.6056,4.08277 -13.034,5.33863 -17.8755,4.13551 z m 187.5,-13.41679 c 0,-0.1782 1.8173,-3.83589 4.0385,-8.12818 2.2212,-4.2923 3.8648,-7.97789 3.6525,-8.1902 -0.2123,-0.2123 -5.5172,2.06988 -11.7885,5.07153 -11.9338,5.71185 -25.7538,10.78079 -27.1091,9.94317 -2.6481,-1.63661 2.7483,-11.87071 9.7375,-18.46682 5.8545,-5.52531 12.2489,-13.74475 16.3266,-20.98636 3.4323,-6.09546 4.1995,-13.5887 2.0288,-19.81552 -0.8867,-2.54346 -0.8216,-3.54231 0.3191,-4.89922 0.788,-0.93742 3.2921,-4.89591 5.5646,-8.79664 4.4684,-7.66995 12.9084,-16.7375 20.1744,-21.67463 11.8284,-8.03715 30.2209,-27.11642 39.7489,-41.23313 4.8692,-7.21423 16.7005,-18.66756 28.3067,-27.40234 10.1829,-7.66363 13.3375,-9.09766 20.0134,-9.09766 9.2435,0 11.8801,5.82571 10.1692,22.46933 -0.7193,6.99822 -0.5289,8.9175 1.5628,15.75032 l 2.3819,7.78099 -4.0053,11.74968 c -4.4591,13.08139 -6.4908,22.14798 -8.123,36.24968 -1.9609,16.94201 -1.5069,15.75108 -6.2788,16.47066 -2.3211,0.35002 -5.4291,0.86678 -6.9066,1.14836 l -2.6865,0.51197 2.9365,4.63029 c 1.615,2.54665 2.9364,5.66718 2.9364,6.9345 0,1.99482 -0.5035,2.3051 -3.75,2.31081 -2.0625,0.004 -5.1,0.90066 -6.75,1.99341 -2.1547,1.42701 -4.6949,1.98868 -9.0155,1.99341 -4.3747,0.005 -7.202,0.64126 -10.3659,2.33354 l -4.3505,2.32696 -0.2193,7.06464 c -0.1994,6.42302 -0.5599,7.52858 -3.9692,12.17304 -2.9925,4.07664 -4.3267,5.10841 -6.6057,5.10841 -3.5771,0 -4.6476,-1.59807 -2.5921,-3.8694 1.4256,-1.5752 1.4286,-1.95625 0.032,-3.95037 -0.8502,-1.21385 -3.2158,-3.05898 -5.2569,-4.10027 l -3.7112,-1.89327 -4.2566,5.04945 c -5.4583,6.47484 -14.537,14.56751 -22.1175,19.71535 -5.5743,3.78541 -6.4202,4.04851 -13.0166,4.04851 -3.8802,0 -7.0549,-0.1458 -7.0549,-0.324 z m 144.2698,-46.78094 -11.7698,-6.10494 -11.2708,-0.52169 -11.2708,-0.52169 2.3545,-4.12337 c 1.6888,-2.95766 2.6805,-7.01511 3.5077,-14.35204 2.2089,-19.59008 5.9616,-34.88108 11.1747,-45.53257 2.6275,-5.36869 4.4485,-9.96449 4.0466,-10.21289 -2.1422,-1.32394 -7.0419,-13.64985 -7.0419,-17.71493 0,-6.49889 1.8965,-15.68778 4.1492,-20.10339 2.217,-4.34564 2.1048,-4.37636 9.3441,2.55821 12.6734,12.13991 31.0892,11.99839 45.1973,-0.34733 9.973,-8.72713 14.1335,-8.84725 37.2639,-1.07585 l 17.3895,5.84258 4.1805,7.13109 c 6.8667,11.71345 8.8887,19.49383 8.9356,34.38272 l 0.04,12.69898 -3.6482,3.80102 c -8.6028,8.96318 -13.8518,22.6384 -13.8518,36.08811 0,9.72505 -1.6028,15.7536 -4.8752,18.33655 -2.164,1.70805 -3.66,1.99764 -8.5218,1.64961 -5.0643,-0.36252 -8.6449,-1.81876 -25.3563,-10.31254 -18.5921,-9.44963 -19.5214,-9.80546 -20.853,-7.98442 -0.7665,1.04829 -1.3937,2.29159 -1.3937,2.76289 0,2.69082 -13.0409,19.76083 -15.0966,19.76083 -0.4751,0 -6.1602,-2.74722 -12.6336,-6.10494 z m -291.6798,-22.16482 -3.91,-1.24383 6.8675,-2.8203 c 7.633,-3.13464 19.4859,-9.79649 21.2832,-11.96208 0.8533,-1.02817 -0.9065,-0.80267 -6.5958,0.84517 -11.051,3.20083 -17.3869,3.76797 -28.3857,2.54085 -11.8674,-1.32402 -13.3366,-1.79786 -11.6975,-3.77277 2.2798,-2.74703 7.3751,-4.63066 18.3455,-6.78198 l 11.0028,-2.15767 1.4502,-3.93881 c 0.9945,-2.7012 1.4089,-7.59638 1.3189,-15.57928 -0.1227,-10.89086 0.015,-11.77755 2.135,-13.76942 1.383,-1.29931 5.1557,-2.72748 9.681,-3.66481 8.3698,-1.73364 10.9961,-3.48407 9.2931,-6.19407 -0.8052,-1.28148 -3.0257,-1.89108 -8.547,-2.34651 -4.1026,-0.3384 -8.4235,-1.13137 -9.6021,-1.76215 -2.5881,-1.38507 -3.7622,-6.59019 -2.334,-10.34668 1.3592,-3.5748 7.6518,-9.55433 13.9711,-13.2759 2.8018,-1.65 5.1031,-3.688 5.114,-4.52889 0.011,-0.84089 -2.9052,-4.42789 -6.4802,-7.97111 -4.576,-4.53537 -6.5019,-7.19076 -6.5065,-8.97111 -0.01,-1.95317 3.5782,-6.01727 15.7394,-17.85189 8.6602,-8.42766 18.265,-16.85332 21.344,-18.72371 6.1411,-3.73053 15.7952,-6.41551 23.1503,-6.43851 7.0523,-0.022 22.496,6.2857 40.044,16.35545 l 7.7713,4.45942 7.0042,-8.09216 c 3.8523,-4.45068 7.2787,-9.18565 7.6141,-10.52216 1.3059,-5.20314 -2.9659,-4.57481 -15.9075,2.33978 l -6.2496,3.33908 -14.9986,-7.6971 c -8.2493,-4.2334 -15.526,-8.37209 -16.1705,-9.19709 -0.9287,-1.18889 -3.7294,-1.5 -13.5032,-1.5 -6.7823,0 -13.5689,0.34607 -15.0814,0.76905 -2.6397,0.73822 -2.75,1.03013 -2.75,7.28139 0,4.32484 -0.4199,6.64985 -1.25,6.92174 -0.6875,0.22518 -8.225,0.90507 -16.75,1.51087 -14.3458,1.01945 -15.9112,0.95923 -21.0225,-0.80865 -14.1698,-4.90107 -22.8923,-11.83254 -29.2931,-23.27831 -7.2091,-12.8911 -9.9405,-31.78784 -5.5275,-38.24172 6.7209,-9.82927 15.5667,-15.63131 23.8431,-15.63902 14.8124,-0.0138 22.2813,8.99747 20.5171,24.75394 -0.4144,3.70189 -0.8129,9.20571 -0.8853,12.23071 l -0.1318,5.5 5,1.24678 c 2.75,0.68573 17.825,1.88833 33.5,2.67245 31.6493,1.58321 38.7101,2.8768 46.7905,8.57243 5.3737,3.78772 12.6092,4.89036 18.6674,2.84476 6.3893,-2.15744 6.5879,-8.41488 0.5648,-17.801 -5.2519,-8.18445 -10.4269,-9.96884 -36.2007,-12.48226 l -5.678,-0.55371 -0.668,5.34663 c -1.0155,8.12726 -1.4594,8.38097 -7.3098,4.17787 -2.8048,-2.01508 -7.6741,-4.66096 -10.8206,-5.87973 -6.8838,-2.66642 -7.1345,-3.28527 -7.9556,-19.64422 -0.3698,-7.36848 -1.1573,-12.75742 -2.1918,-15 -0.8881,-1.925 -1.7738,-6.65 -1.9683,-10.5 -0.293,-5.79993 0.043,-7.77147 1.9582,-11.5 2.4972,-4.86074 5.0564,-6.53575 11.5795,-7.57882 3.9529,-0.63209 4.281,-0.49276 5.9578,2.52982 3.7302,6.7238 2.1724,6.26403 27.001,7.96915 l 23.0044,1.57985 2.5194,-2.75 c 3.085,-3.36733 3.6216,-3.36465 21.8846,0.10942 13.9273,2.64934 14.7491,2.70136 17,1.07635 4.6824,-3.3804 16.4871,-8.81279 22.5096,-10.35863 3.3793,-0.86743 9.0617,-1.57714 12.6275,-1.57714 11.7341,0 11.204,3.01112 -2.8637,16.26776 -9.177,8.64796 -10.2713,13.20145 -4.123,17.15726 3.4394,2.21293 27.511,4.70535 45.2037,4.68048 19.0309,-0.0267 21.1481,0.68516 20.0143,6.72997 -1.104,5.88561 -22.1949,34.32361 -27.6022,37.21752 -1.1134,0.59589 -4.6934,0.97451 -7.9555,0.84138 -3.2621,-0.13313 -6.194,0.0208 -6.5152,0.34206 -0.3213,0.32127 4.6526,5.912 11.0531,12.42385 6.4006,6.51184 12.0678,12.61186 12.5939,13.55558 1.334,2.3929 -2.9383,5.05687 -8.1099,5.05687 -3.9107,0 -3.9674,0.053 -3.9674,3.71243 0,3.09694 0.7756,4.47713 4.6783,8.32474 4.3345,4.27342 4.5916,4.8023 3.5,7.19825 -0.6481,1.42228 -1.1783,3.90564 -1.1783,5.51858 0,2.41479 -0.7065,3.29308 -4.0014,4.97401 -7.0262,3.58446 -14.9124,4.8439 -40.4986,6.46761 -13.75,0.87259 -26.8,1.84681 -29,2.16493 -2.2,0.31813 -8.0311,2.89329 -12.9581,5.72257 -4.9269,2.82928 -12.1883,6.55174 -16.1363,8.27213 -18.1345,7.90237 -31.0308,19.48737 -45.2495,40.64847 -6.6308,9.86847 -9.9495,15.89878 -11.6989,21.25807 -4.468,13.68735 -11.5696,21.79653 -21.4572,24.50166 -2.475,0.67713 -12.049,4.34815 -21.2756,8.15781 -18.2723,7.54462 -26.1954,9.06178 -34.1344,6.53625 z m 151.9236,-209.59629 c 2.2075,-0.42843 5.9319,-2.16851 8.2764,-3.86686 l 4.2627,-3.08791 -10.2763,-7.98541 c -5.652,-4.39198 -10.4629,-7.8083 -10.6908,-7.59182 -0.228,0.21648 1.106,3.2981 2.9644,6.84805 1.8584,3.54995 3.1699,6.65455 2.9145,6.89911 -0.2555,0.24456 -4.7313,-0.37966 -9.9462,-1.38717 -5.2149,-1.00751 -9.6319,-1.68165 -9.8155,-1.49808 -0.1835,0.18357 1.0522,3.07929 2.7461,6.43495 l 3.0799,6.10119 6.2356,-0.0435 c 3.4296,-0.024 8.0417,-0.39408 10.2492,-0.8225 z m -190.5136,181.27967 c -10.1705,-5.79109 -13.1899,-11.02783 -13.7879,-23.91362 -0.4628,-9.973 1.6853,-21.16284 6.1429,-32 1.3574,-3.3 2.2943,-6.17605 2.0819,-6.39123 -0.2123,-0.21518 -2.8019,1.47257 -5.7546,3.75056 -5.5404,4.27443 -11.794,11.15901 -15.0373,16.55465 -5.009,8.33321 -9.3089,9.80414 -12.6751,4.33602 -3.4458,-5.59738 -4.4347,-10.21374 -2.9537,-13.78918 2.0411,-4.92756 8.337,-13.94823 13.8804,-19.88775 4.984,-5.34007 7.8626,-11.03573 6.6054,-13.06983 -0.3521,-0.56973 -1.0847,-0.76116 -1.6279,-0.42541 -0.5433,0.33575 -2.0702,0.33878 -3.3932,0.007 -1.7741,-0.44526 -2.8707,-1.91362 -4.1779,-5.59415 l -1.7724,-4.99068 -5.0153,0.006 c -2.7584,0.003 -6.6536,0.46063 -8.656,1.01681 -2.4741,0.68721 -4.5103,0.68061 -6.3546,-0.0206 -2.3252,-0.88403 -2.6171,-1.42362 -2.038,-3.76681 1.3151,-5.32086 8.7106,-10.91582 18.7033,-14.1496 3.9916,-1.29216 5.83,-4.63015 5.83,-10.5858 0,-7.16528 -3.5439,-11.53708 -8.1705,-10.07934 -0.7312,0.23039 -5.9624,0.70199 -11.6248,1.04801 l -10.2952,0.62913 1.9471,-3.7989 c 1.0709,-2.08939 3.5433,-5.80937 5.4942,-8.26661 1.9509,-2.45724 3.457,-4.55785 3.3468,-4.66801 -0.1101,-0.11017 -2.6602,0.4378 -5.6669,1.21771 -8.8788,2.30314 -24.3575,1.49116 -27.2797,-1.43104 -1.9587,-1.9587 0.2454,-6.05252 5.0075,-9.30051 6.7599,-4.61064 13.1026,-9.99328 14.7674,-12.53201 1.3811,-2.10622 1.1875,-2.29359 -5.6061,-5.42499 -8.9707,-4.13484 -9.5839,-5.27184 -5.8451,-10.83868 1.7525,-2.60942 2.9253,-5.66951 2.9253,-7.63266 0,-4.05148 2.4753,-6.15117 13.5,-11.45148 7.7533,-3.72753 8.372,-3.85437 20.0626,-4.11324 13.7004,-0.30337 12.1237,-0.88582 30.5811,11.29702 5.2876,3.49008 10.937,7.06548 12.5543,7.94534 2.4309,1.3225 3.2517,2.7956 4.7363,8.5 3.2172,12.36128 3.8177,19.17929 2.5456,28.90026 -0.6478,4.95 -1.4134,13.19612 -1.7014,18.32471 l -0.5236,9.3247 5.4185,5.1753 c 2.9802,2.84641 7.1978,6.06689 9.3726,7.15661 6.4406,3.22731 11.2945,7.5577 13.4406,11.991 1.7216,3.5563 2.0142,6.17879 2.0185,18.0934 0.01,13.05468 0.1607,14.18678 2.4688,17.93428 3.3018,5.36076 3.1478,8.31136 -0.8495,16.27496 -3.1961,6.36765 -3.3282,7.0439 -2.4856,12.72504 1.1126,7.5009 1.4203,24.28978 0.4973,27.12554 -0.3938,1.20984 -3.157,3.42331 -6.414,5.13797 -12.8245,6.75151 -26.2588,8.1844 -34.2221,3.65011 z m 443.3876,-16.05413 c 0.3663,-3.11648 1.7938,-9.02609 3.1722,-13.13245 l 2.5063,-7.46612 -5.9339,-5.63046 c -8.121,-7.70559 -11.2805,-14.28297 -12.0389,-25.06186 -0.5859,-8.32576 -0.6309,-8.44191 -3.5933,-9.27085 -5.4088,-1.51347 -25.6141,-4.79775 -29.5165,-4.79775 -2.0997,0 -5.9132,-0.89825 -8.4744,-1.99611 -6.2344,-2.67236 -21.433,-5.67375 -35.5091,-7.01227 -12.6139,-1.19948 -19.1465,-2.78841 -26,-6.324 -3.6818,-1.89937 -5.2647,-3.68458 -8.7058,-9.81826 -2.4579,-4.38121 -7.8341,-11.35111 -12.9363,-16.77115 l -8.7305,-9.27436 -2.6904,-10.65193 c -2.684,-10.62687 -2.5817,-14.15192 0.4111,-14.15192 1.6841,0 5.2744,3.96877 11.1136,12.28524 2.6203,3.73188 6.2006,7.88088 7.9563,9.22 3.349,2.55443 12.4802,6.92994 13.1222,6.28794 0.2056,-0.20566 -5.1926,-7.88017 -11.996,-17.05446 -6.8034,-9.1743 -12.9579,-18.38113 -13.6765,-20.45963 -1.6406,-4.74495 -1.6234,-15.51879 0.033,-20.77909 4.722,-14.99401 15.0315,-34.53294 21.2068,-40.19229 l 2.3922,-2.1923 -0.8959,10.6923 c -0.8634,10.30315 -0.1597,24.19338 1.2255,24.19126 0.3687,-5.6e-4 6.5204,-4.69885 13.6704,-10.44064 11.2887,-9.06534 13.8225,-10.6463 19.248,-12.00964 9.9405,-2.49789 25.7653,-3.76755 37.5597,-3.01352 9.3396,0.5971 11.1911,1.01368 13.6313,3.06693 3.2833,2.76273 4.2697,6.50097 2.8157,10.67169 -0.9744,2.7952 -1.2487,2.9176 -5.142,2.29449 -12.0228,-1.92423 -12.8781,-1.92571 -14.2682,-0.0247 -2.9218,3.99578 -1.8004,5.13219 9.2915,9.41656 18.998,7.33815 32.7505,10.10877 42.7407,8.61066 3.9686,-0.59514 4.6317,-1.06607 5.5902,-3.97038 1.633,-4.94792 0.5521,-6.59937 -4.3239,-6.60618 -11.7773,-0.0165 -22.1238,-3.5795 -24.4993,-8.43682 -1.1819,-2.4168 -1.1448,-2.98443 0.2889,-4.41536 1.4144,-1.41165 4.4725,-1.64653 21.7962,-1.67414 l 20.1509,-0.0321 1.327,-3.25216 c 1.6511,-4.04628 1.1566,-4.99502 -6.5513,-12.57041 l -5.9898,-5.88679 -11.3328,4.26476 c -11.2547,4.23538 -21.3996,6.1663 -27.609,5.25495 -3.1378,-0.46056 -3.2238,-0.60621 -3.2238,-5.46374 0,-4.77486 0.2567,-5.24174 5.9387,-10.80157 7.284,-7.12735 17.5881,-12.41714 28.6255,-14.6954 7.506,-1.54932 8.5276,-1.55021 14.7574,-0.0128 12.9116,3.18625 20.53,9.86209 25.6311,22.45999 2.6435,6.52848 5.0094,8.70529 7.1428,6.57186 0.5108,-0.51078 -1.5864,-7.1904 -4.9744,-15.84378 -3.2217,-8.22838 -6.3669,-17.34534 -6.9894,-20.25991 -1.3572,-6.35531 -1.4773,-13.86916 -0.2338,-14.63766 1.6774,-1.03673 11.116,2.73662 14.6168,5.84349 2.1446,1.9033 4.7359,5.97879 6.7355,10.59339 l 3.2498,7.5 0.049,20.5 c 0.04,16.4812 0.4096,21.92345 1.8879,27.76104 2.0821,8.22172 1.7613,17.02112 -0.8012,21.9764 -0.8708,1.68395 -3.4415,4.79442 -5.7127,6.91215 -2.2712,2.11772 -5.9763,5.65041 -8.2335,7.85041 l -4.1041,4 4.4573,0.26372 c 7.5771,0.44831 8.9973,1.088 10.5231,4.73975 0.7888,1.88776 1.4341,6.55674 1.4341,10.37552 0,6.50287 -0.1922,7.10498 -3.031,9.49369 -2.7282,2.29556 -8.5529,4.60709 -11.6462,4.62174 -0.6475,0.003 -2.914,-4.49523 -5.0368,-9.99622 l -3.8595,-10.00179 -3.8583,4.61584 c -8.1059,9.69717 -16.8397,12.70107 -23.6279,8.12651 -3.8512,-2.59534 -4.8962,-5.46979 -4.1766,-11.48876 0.2795,-2.3375 0.1446,-4.25 -0.2998,-4.25 -0.4444,0 -4.6681,0.724 -9.386,1.60889 -19.3253,3.62469 -32.2114,0.46108 -42.8477,-10.5194 -5.3477,-5.52076 -5.4798,-5.58661 -10.7425,-5.35528 -7.396,0.3251 -15.4175,3.57165 -21.029,8.51103 -4.8158,4.23907 -9.4309,12.31656 -9.4489,16.538 -0.021,4.79637 8.2265,17.95264 14.9902,23.9134 7.4606,6.57495 20.3828,10.73719 38.1213,12.2789 17.8754,1.5536 23.5475,3.69999 33.2848,12.59516 4.4517,4.06664 9.2996,8.46586 10.7732,9.77604 1.6562,1.47262 2.9177,3.8657 3.3038,6.2677 0.7952,4.94764 1.8024,6.8012 3.9221,7.21814 7.3614,1.4479 5.0342,-12.12122 -4.4657,-26.03855 l -3.9549,-5.79407 12.7577,0.002 12.7577,0.002 2.9836,5.74763 c 3.7015,7.13042 13.3257,21.56938 17.4952,26.24762 l 3.1194,3.5 -0.3795,-8 c -0.255,-5.37666 -1.0949,-9.60829 -2.5612,-12.90454 -1.2,-2.69749 -1.987,-5.09931 -1.7489,-5.33736 0.238,-0.23805 3.056,0.1021 6.2621,0.75589 12.7734,2.60476 19.6376,9.95719 19.539,20.92876 -0.042,4.64083 -0.8989,7.21934 -5.2795,15.88148 -6.4294,12.71313 -15.6069,25.78003 -22.4732,31.99731 -11.4305,10.34998 -21.3812,14.05894 -37.957,14.14787 -5.1058,0.0274 -9.0452,0.58801 -10.8892,1.54967 l -2.8892,1.50675 0.666,-5.66634 z M 427.53039,358.42141 c -3.025,-0.21048 -7.4125,-0.63835 -9.75,-0.95081 l -4.25,-0.56812 -0.01,-12.68872 c -0.01,-14.95385 -1.8877,-28.67215 -5.4458,-39.72047 -3.6831,-11.43684 -5.0566,-25.78794 -3.5424,-37.01256 3.2673,-24.21948 1.5937,-34.55546 -11.0038,-67.9557 -4.8266,-12.79701 -5.5668,-17.21271 -3.6532,-21.79258 1.8807,-4.5011 4.1841,-5.70742 10.8983,-5.70742 8.4564,0 9.5512,1.68162 18.6567,28.65491 4.2415,12.5648 8.29,23.9059 8.9966,25.20245 4.6262,8.48831 2.8537,-14.4088 -2.8278,-36.53008 -4.2615,-16.59237 -4.2636,-21.1323 -0.011,-24.57728 2.8338,-2.29581 11.1661,-2.37958 13.4109,-0.13483 3.891,3.89102 7.6058,13.55021 9.103,23.66968 4.0003,27.03692 7.2224,39.31741 9.6729,36.86687 1.2858,-1.28573 1.3223,-12.30979 0.1373,-41.40307 -0.6294,-15.45356 -0.5966,-15.81721 1.7365,-19.2347 5.0651,-7.41954 19.2756,-7.54913 21.8378,-0.19916 0.8658,2.48346 3.9432,50.47583 4.0234,62.74408 0.01,1.40738 0.6658,3.43238 1.4591,4.5 1.4171,1.90717 1.4827,1.90131 3.75,-0.33473 2.2685,-2.23723 2.3161,-2.72953 2.8076,-29 0.275,-14.69828 0.9045,-27.39914 1.3988,-28.22414 2.6626,-4.44381 5.0334,-6 9.1407,-6 5.2885,0 9.0706,2.83618 10.4063,7.80362 0.5466,2.03301 1.2531,11.34638 1.5699,20.69638 0.643,18.97581 1.3331,26.34792 2.3209,24.79474 1.2944,-2.03512 7.7042,-5.28732 10.4281,-5.291 1.7573,-0.002 4.1258,1.24362 6.5,3.41942 l 3.7353,3.42316 -0.059,17.32684 c -0.1016,29.7831 -2.6278,41.54232 -13.8725,64.57408 -7.4868,15.33491 -13.3593,22.24678 -20.693,24.35541 -2.4064,0.69191 -4.4402,1.28937 -4.5194,1.32768 -0.079,0.0383 0.4279,5.24467 1.127,11.56967 0.6992,6.325 0.989,11.80303 0.6441,12.17339 -2.0133,2.16213 -57.9484,5.34873 -74.127,4.22299 z m 72.0459,-34.48203 c 1.3526,-2.5275 1.5586,-2.34897 -4.3887,-3.80459 -6.0422,-1.47886 -9.3432,-3.60187 -11.2083,-7.2086 -2.0448,-3.95424 -1.8754,-5.1092 1.9711,-13.43433 2.4104,-5.21709 5.5279,-9.62914 10.5609,-14.94661 9.3559,-9.88475 11.5195,-14.84 14.9681,-34.28191 3.9926,-22.50834 4.2498,-24.47918 3.1017,-23.76965 -1.5549,0.96099 -4.7476,12.28862 -7.4725,26.51195 -3.1296,16.33594 -3.6234,17.32051 -8.4562,16.85963 -3.4986,-0.33364 -3.6828,-0.20762 -3.319,2.27098 0.2119,1.44332 -0.3083,3.92125 -1.1559,5.5065 -1.9549,3.65626 -14.7242,16.81626 -19.3879,19.98114 -4.1863,2.84093 -9.8874,3.14592 -14.8435,0.79408 -4.4343,-2.10417 -15.1626,-13.62522 -17.5189,-18.81335 -2.7388,-6.03033 -2.5082,-13.7569 0.5155,-17.27383 l 2.4124,-2.80576 19.541,-0.34131 c 20.1918,-0.35267 22.4608,-0.84129 21.0446,-4.53194 -0.5495,-1.43197 -3.178,-1.62675 -21.9522,-1.62675 -22.1732,0 -25.3906,0.48026 -28.7287,4.28835 -1.6208,1.84893 -1.8635,3.29013 -1.48,8.78763 0.5996,8.59622 5.2974,17.64203 15.0261,28.93349 8.517,9.88512 15.1821,13.99053 22.7137,13.99053 4.4601,0 4.7977,0.18433 5.3444,2.91807 1.8363,9.18135 19.2861,18.3981 22.7123,11.99628 z m 53.3228,-171.51014 c 1.5738,-6.91657 1.83,-14.27591 0.6271,-18.00841 -3.0382,-9.4272 -13.0467,-16.9651 -24.1731,-18.206 l -6.1856,-0.6898 4.4315,-2.9525 c 9.2347,-6.1528 22.4802,-3.9987 31.6216,5.1426 5.7626,5.7627 8.3106,11.9128 8.3061,20.049 -0.01,9.88111 -3.8178,15.2752 -11.9446,16.90057 -3.2755,0.6551 -3.3303,0.60946 -2.683,-2.23546 z m -206.0701,-1.36373 c -4.8083,-2.93176 -6.6932,-7.33716 -6.6492,-15.54048 0.044,-8.2149 2.2748,-13.4242 8.3506,-19.5 6.2298,-6.2298 11.3271,-8.4357 19.573,-8.4703 6.1987,-0.026 7.6203,0.3359 11.5,2.9277 l 4.427,2.9574 -6.5,1.1027 c -7.355,1.2478 -9.7544,2.3366 -15.6558,7.1045 -6.3373,5.12 -8.6717,10.8133 -8.0634,19.66559 0.2726,3.96682 0.8234,8.22491 1.2241,9.46241 0.6409,1.97991 0.3843,2.24955 -2.1383,2.24626 -1.5766,-0.002 -4.3072,-0.88215 -6.068,-1.95578 z m 101.9668,-12.43433 c -5.8099,-8.36355 -10.5101,-12.41855 -26.9004,-23.20795 -13.8916,-9.1447 -18.8302,-14.5053 -20.4205,-22.165703 -0.6405,-3.0854 -0.9026,-7.5214 -0.5824,-9.8577 l 0.5823,-4.2479 -5.2487,1.8058 c -4.9992,1.7199 -15.7432,3.8153 -22.1957,4.3286 -2.7891,0.2219 -2.2542,0.7824 7.6082,7.9731 19.1088,13.932003 22.6962,20.032903 21.5992,36.732403 -0.653,9.93939 -1.3527,12.24763 -3.5832,11.82 -1.2489,-0.23942 -1.8019,-2.10251 -2.3931,-8.0621 -1.2294,-12.3923 -3.6856,-17.5695 -11.9778,-25.2468 -5.0227,-4.6502 -9.6674,-7.794 -15.6937,-10.622103 -19.3039,-9.0595 -23.2231,-11.372 -27.9638,-16.5003 -9.3485,-10.1128 -10.5815,-23.1268 -3.2953,-34.779 5.8322,-9.327 8.1558,-8.4167 8.1859,3.2067 0.016,6.1114 3.1723,13.2216 8.0231,18.0724 5.1524,5.1524 15.8797,7.4138 24.2029,5.1022 l 3.7123,-1.031 -3.9065,-3.5294 c -7.2619,-6.5606 -7.6319,-13.8034 -1.0107,-19.7852 5.5892,-5.0495 9.377,-6.7081 15.8097,-6.9226 5.0099,-0.1672 5.7111,0.047 5.9218,1.8104 0.1619,1.3553 -1.0468,2.8834 -3.75,4.7405 -3.3146,2.2772 -3.989,3.3076 -3.989,6.095 0,3.9611 2.5408,6.6645 6.2637,6.6645 3.9874,0 6.8794,-1.4315 10.9863,-5.438 6.2412,-6.0885 4.8915,-11.4766 -4.0006,-15.971 -5.535,-2.7976 -13.0159,-3.7299 -21.0085,-2.6182 -9.4896,1.3198 -15.6107,4.4407 -27.0952,13.8144 l -4.0274,3.2872 0.8952,-3.1215 c 2.2367,-7.7987 9.5656,-16.7894 18.1765,-22.2977 15.3684,-9.8311 43.0344,-11.5113 59.7074,-3.6262 5.9652,2.8211 16.1026,11.2006 16.1026,13.3102 0,0.5861 1.4418,2.5531 3.204,4.3712 l 3.2039,3.3057 4.1672,-4.0898 4.1671,-4.0897 0.6828,2.7207 c 0.541,2.1554 0.113,3.3155 -2.0598,5.5834 -2.6839,2.8014 -2.7011,2.896 -0.8039,4.4147 2.6195,2.0969 13.6056,7.4428 15.2971,7.4438 1.0161,6e-4 1.1497,-0.6922 0.5301,-2.7492 -1.5963,-5.3001 -0.9152,-10.6559 2.1311,-16.7566 1.6392,-3.2827 3.1503,-6.3714 3.358,-6.8637 0.6366,-1.5092 -8.995,0.3749 -15.3776,3.008 -3.3,1.3614 -6.675,2.7412 -7.5,3.0662 -0.825,0.325 0.3,-1.303 2.5,-3.6176 10.7337,-11.2932 35.5982,-16.8907 55.9125,-12.5872 15.166,3.2129 27.747,12.129 33.577,23.7957 1.6558,3.3136 3.0105,6.6393 3.0105,7.3905 0,0.7512 -2.8471,-1.0495 -6.327,-4.0016 -3.4798,-2.952 -8.9923,-6.676 -12.25,-8.2755 -5.4991,-2.7001 -6.7477,-2.9082 -17.4477,-2.9082 -11.3741,0 -11.593,0.044 -16.7584,3.3597 -5.864,3.7642 -7.1126,6.5157 -4.8933,10.7826 2.968,5.7064 8.4939,9.3577 14.1617,9.3577 3.1927,0 3.7894,-0.4131 5.0887,-3.5228 1.7678,-4.2309 1.0433,-5.9858 -4.2113,-10.2012 -2.6947,-2.1617 -3.5121,-3.4443 -3.0171,-4.7342 0.5872,-1.5303 1.4522,-1.6726 6.4062,-1.0536 6.8619,0.8573 11.6517,3.1709 15.8879,7.6742 5.805,6.171 5.5563,11.4999 -0.8616,18.4626 l -4.0005,4.3399 2.6763,1.0176 c 3.4793,1.3228 9.5623,1.294 14.9826,-0.071 10.0457,-2.5296 17.5613,-13.7249 17.5627,-26.1617 0,-8.1535 1.487,-8.8224 5.9408,-2.6741 4.7531,6.5614 6.3484,11.8871 5.8776,19.6216 -0.9114,14.9746 -7.9857,22.1692 -32.1883,32.736 -7.0274,3.0682 -17.166,10.135903 -21.3094,14.854903 -4.6877,5.3391 -7.1634,11.4856 -8.5453,21.2162 -0.9898,6.96939 -1.6499,9.04614 -2.9543,9.29479 -2.2563,0.4301 -3.1847,-5.92259 -2.6505,-18.13679 0.5945,-13.5919 2.9363,-17.0554 20.2804,-29.993903 l 10.9502,-8.1687 -7.4502,-0.6898 c -4.0976,-0.3795 -10.3752,-1.6111 -13.9502,-2.7371 -3.575,-1.126 -6.7811,-2.0531 -7.1246,-2.0602 -0.3435,-0.01 -0.8236,3.6996 -1.0668,8.2371 -0.6755,12.602603 -4.0496,16.887103 -22.8086,28.963603 -15.1119,9.7287 -22.1877,16.4883 -28.5,27.22661 -0.8439,1.43569 -1.8169,0.52521 -6.2346,-5.83406 z m 15.0822,-21.33585 c 23.6939,-20.010803 32.491,-33.003003 28.6407,-42.298603 -3.5642,-8.6047 -18.4537,-7.8171 -23.9937,1.2692 -1.0929,1.7925 -1.9871,4.3841 -1.9871,5.7591 0,5.232 7.0872,12.9321 13.2425,14.3878 3.4949,0.8265 3.5168,2.3702 0.052,3.687403 -5.9427,2.2594 -19.2808,-4.618703 -22.4394,-11.571503 -3.9235,-8.6363 -1.49,-16.0623 6.9027,-21.0644 l 5.2656,-3.1382 -7.3773,-5.6506 c -4.0575,-3.1078 -7.6855,-5.6505 -8.0621,-5.6505 -0.3767,0 -4.005,2.5684 -8.063,5.7076 l -7.3781,5.7077 4.6747,2.6763 c 7.5652,4.3314 8.6746,6.1015 8.6746,13.8412 0,5.7771 -0.383,7.2251 -2.7228,10.2927 -3.7454,4.9104 -10.8723,8.2176 -17.7772,8.2493 -6.7142,0.031 -7.4667,-1.9892 -1.5,-4.0266 2.2,-0.7513 5.6875,-3.167 7.75,-5.3683 3.0289,-3.2328 3.75,-4.7644 3.75,-7.9645 0,-7.0684 -7.0142,-13.1188 -15.2003,-13.1117 -6.172,0.01 -10.4295,2.9077 -11.8154,8.0546 -1.0009,3.7171 -0.851,4.6858 1.4383,9.2956 3.5437,7.1357 13.5219,18.840903 20.8425,24.449903 3.3711,2.5829 8.5202,6.8337 11.4426,9.4462 2.9224,2.6125 5.5776,4.75 5.9005,4.75 0.3228,0 4.7055,-3.4784 9.7394,-7.7297 z m -24.5088,-61.775203 c 2.9364,-1.367 6.6603,-3.4263 8.2754,-4.5764 l 2.9365,-2.091 -2.6356,-2.0732 c -2.2353,-1.7582 -2.5592,-2.6432 -2.1324,-5.8253 0.5004,-3.7308 0.471,-3.7666 -5.1547,-6.2913 -5.9666,-2.6776 -14.7015,-4.5775 -13.9631,-3.037 0.2371,0.4945 1.6727,3.4707 3.1902,6.6138 3.6289,7.516 4.2001,11.5207 2.2939,16.0829 -1.4307,3.4243 -1.4193,3.7017 0.152,3.6926 0.9345,-0.01 4.1015,-1.1282 7.0378,-2.4951 z"
     id="path2886" />
</svg>
